<svg preserveAspectRatio="none" data-bbox="18.5 22.625 163 154.875" viewBox="18.5 22.625 163 154.875" height="200" width="200" xmlns="http://www.w3.org/2000/svg" data-type="color" role="presentation" aria-hidden="true"><defs><style>#comp-jo9fnpmw svg [data-color="1"] {fill: #000000;}
#comp-jo9fnpmw svg [data-color="2"] {fill: #CA3C28;}</style></defs>
    <g>
        <path d="M176.3 95.7c-.9 0-1.9-.3-2.7-1L100 31.9 26.4 94.7c-1.7 1.5-4.3 1.3-5.7-.4-1.5-1.7-1.3-4.3.4-5.7l76.3-65c1.5-1.3 3.8-1.3 5.3 0l76.3 65c1.7 1.5 1.9 4 .4 5.7-.8.9-2 1.4-3.1 1.4z" fill="#000000" data-color="1"></path>
        <path d="M58.3 90.4c-1 0-1.9-.4-2.6-1.2-1.2-1.4-1.1-3.5.4-4.8l41.7-35.5c1.3-1.1 3.2-1.1 4.4 0l41.7 35.5c1.4 1.2 1.6 3.3.4 4.8-1.2 1.4-3.4 1.6-4.8.4L100 55.9 60.5 89.6c-.6.5-1.4.8-2.2.8z" fill="#000000" data-color="1"></path>
        <path d="M38.9 177.5c-2.3 0-4.1-1.8-4.1-4.1V78.9c0-2.2 1.8-4.1 4.1-4.1s4.1 1.8 4.1 4.1v94.6c0 2.2-1.9 4-4.1 4z" fill="#000000" data-color="1"></path>
        <path d="M161.1 177.5c-2.3 0-4.1-1.8-4.1-4.1V78.9c0-2.2 1.8-4.1 4.1-4.1s4.1 1.8 4.1 4.1v94.6c0 2.2-1.8 4-4.1 4z" fill="#000000" data-color="1"></path>
        <path d="M177.4 177.5H22.6c-2.3 0-4.1-1.8-4.1-4.1 0-2.2 1.8-4.1 4.1-4.1h154.8c2.3 0 4.1 1.8 4.1 4.1s-1.8 4.1-4.1 4.1z" fill="#000000" data-color="1"></path>
        <path d="M128.5 177.5h-57c-2.3 0-4.1-1.8-4.1-4.1V137c0-17.9 14.6-32.4 32.6-32.4s32.6 14.5 32.6 32.4v36.5c0 2.2-1.8 4-4.1 4zm-52.9-8.1h48.9V137c0-13.4-11-24.3-24.4-24.3S75.6 123.6 75.6 137v32.4z" fill="#000000" data-color="1"></path>
        <path d="M100 155.9c-1.9 0-3.4-1.5-3.4-3.4v-18.9c0-1.9 1.5-3.4 3.4-3.4s3.4 1.5 3.4 3.4v18.9c0 1.9-1.5 3.4-3.4 3.4z" fill="#ff0000" data-color="2"></path>
        <path d="M109.5 146.4h-19c-1.9 0-3.4-1.5-3.4-3.4s1.5-3.4 3.4-3.4h19c1.9 0 3.4 1.5 3.4 3.4s-1.5 3.4-3.4 3.4z" fill="#ff0000" data-color="2"></path>
    </g>
</svg>