<?xml version="1.0" standalone="no"?>
<!DOCTYPE svg PUBLIC "-//W3C//DTD SVG 20010904//EN"
 "http://www.w3.org/TR/2001/REC-SVG-20010904/DTD/svg10.dtd">
<svg version="1.0" xmlns="http://www.w3.org/2000/svg"
 width="512.000000pt" height="512.000000pt" viewBox="0 0 512.000000 512.000000"
 preserveAspectRatio="xMidYMid meet">

<g transform="translate(0.000000,512.000000) scale(0.100000,-0.100000)"
fill="#000000" stroke="none">
<path d="M2540 5081 c-32 -33 -46 -67 -109 -257 -40 -121 -76 -226 -80 -234
-7 -13 -51 -16 -267 -20 -275 -6 -300 -10 -324 -55 -32 -60 17 -116 247 -281
95 -69 175 -129 178 -134 3 -5 -24 -101 -61 -212 -77 -238 -91 -331 -55 -367
49 -49 109 -23 345 148 92 67 173 124 179 126 7 3 93 -54 192 -127 99 -72 198
-139 220 -149 55 -25 99 -24 126 4 35 37 22 119 -55 355 -36 112 -66 209 -65
215 0 7 81 71 181 142 238 172 284 225 240 284 -33 44 -68 50 -334 50 l-247 1
-62 193 c-70 218 -108 307 -146 336 -37 30 -61 26 -103 -18z"/>
<path d="M1832 4104 c-434 -157 -826 -478 -1075 -881 -377 -609 -416 -1389
-102 -2025 298 -602 848 -1028 1495 -1157 694 -138 1404 80 1907 586 497 499
713 1198 582 1883 -125 652 -546 1206 -1142 1502 -124 62 -247 109 -247 96 0
-6 14 -54 32 -107 26 -79 32 -115 35 -200 l2 -104 68 -37 c284 -154 513 -373
680 -651 158 -263 231 -519 240 -839 6 -196 -6 -317 -48 -483 -108 -431 -397
-826 -774 -1057 -261 -161 -534 -245 -857 -265 l-98 -5 0 49 c0 32 6 56 18 69
21 25 345 147 417 157 57 8 111 33 141 67 38 40 134 188 134 204 0 9 -28 46
-61 82 -101 110 -155 198 -179 287 -7 28 -26 69 -42 92 -58 86 -213 160 -386
185 -84 12 -84 12 -124 63 -50 62 -85 134 -98 206 -6 30 -13 62 -16 71 -7 25
-39 31 -71 14 -97 -50 -156 -198 -170 -424 -6 -101 -7 -103 -37 -124 -153
-106 -274 -268 -335 -450 -25 -74 -35 -119 -56 -251 -3 -20 -8 -37 -11 -37 -2
0 -23 11 -45 26 l-40 25 7 57 c30 254 137 468 320 641 l97 92 7 82 c13 136 39
244 78 322 49 99 151 172 226 162 52 -7 102 -59 111 -114 11 -73 36 -142 68
-190 31 -47 34 -48 106 -61 51 -9 76 -10 80 -3 4 6 15 93 25 193 25 260 34
273 200 309 407 87 646 315 672 644 5 63 4 74 -18 105 -13 19 -39 42 -58 51
-19 8 -136 40 -258 69 l-224 54 -24 48 c-32 63 -68 89 -220 152 -148 62 -262
99 -354 116 -70 13 -280 17 -298 6 -7 -4 17 -52 63 -130 184 -310 279 -562
300 -806 14 -146 -31 -211 -166 -246 -112 -29 -318 -27 -419 5 -123 38 -221
94 -311 178 l-47 44 -7 -138 c-8 -165 -23 -231 -77 -341 -64 -129 -237 -333
-385 -453 -17 -15 -45 -53 -61 -85 -29 -57 -31 -58 -40 -34 -119 297 -152 452
-152 720 0 374 109 712 329 1021 157 218 360 395 604 524 l104 55 6 98 c4 73
14 124 41 206 19 61 34 111 33 112 -1 1 -44 -13 -95 -32z m948 -1154 c37 -37
14 -100 -37 -100 -27 0 -63 33 -63 58 0 52 64 78 100 42z m62 -1727 c36 -32
10 -93 -40 -93 -30 0 -62 26 -62 49 0 51 64 79 102 44z"/>
<path d="M1931 3340 c-226 -125 -321 -288 -376 -649 l-15 -96 87 -85 c99 -97
162 -136 278 -175 67 -23 98 -27 190 -28 119 0 225 21 258 51 18 15 19 27 14
112 -11 165 -79 372 -198 600 -62 118 -170 299 -179 299 -3 1 -29 -13 -59 -29z"/>
</g>
</svg>
